<mxfile host="app.diagrams.net" modified="2023-08-14T15:45:54.985Z" agent="Mozilla/5.0 (Windows NT 10.0; Win64; x64) AppleWebKit/537.36 (KHTML, like Gecko) Chrome/115.0.0.0 Safari/537.36" etag="kiPumxJp9lxJRWg_6PdX" version="21.6.8" type="device">
  <diagram id="R2lEEEUBdFMjLlhIrx00" name="Page-1">
    <mxGraphModel dx="2441" dy="732" grid="1" gridSize="10" guides="1" tooltips="1" connect="1" arrows="1" fold="1" page="1" pageScale="1" pageWidth="850" pageHeight="1100" math="0" shadow="0" extFonts="Permanent Marker^https://fonts.googleapis.com/css?family=Permanent+Marker">
      <root>
        <mxCell id="0" />
        <mxCell id="1" parent="0" />
        <mxCell id="7CmSQX5z0Lune_JCAw_3-1" value="Customer" style="whiteSpace=wrap;html=1;align=center;" vertex="1" parent="1">
          <mxGeometry x="70" y="150" width="160" height="90" as="geometry" />
        </mxCell>
        <mxCell id="7CmSQX5z0Lune_JCAw_3-2" value="FoodItem" style="whiteSpace=wrap;html=1;align=center;" vertex="1" parent="1">
          <mxGeometry x="70" y="430" width="160" height="90" as="geometry" />
        </mxCell>
        <mxCell id="7CmSQX5z0Lune_JCAw_3-3" value="Restaurant" style="whiteSpace=wrap;html=1;align=center;" vertex="1" parent="1">
          <mxGeometry x="310" y="300" width="160" height="90" as="geometry" />
        </mxCell>
        <mxCell id="7CmSQX5z0Lune_JCAw_3-4" value="Order" style="whiteSpace=wrap;html=1;align=center;" vertex="1" parent="1">
          <mxGeometry x="-150" y="300" width="160" height="90" as="geometry" />
        </mxCell>
        <mxCell id="7CmSQX5z0Lune_JCAw_3-5" value="Phone" style="ellipse;whiteSpace=wrap;html=1;align=center;" vertex="1" parent="1">
          <mxGeometry x="260" y="80" width="100" height="40" as="geometry" />
        </mxCell>
        <mxCell id="7CmSQX5z0Lune_JCAw_3-6" value="Name" style="ellipse;whiteSpace=wrap;html=1;align=center;" vertex="1" parent="1">
          <mxGeometry x="40" y="80" width="100" height="40" as="geometry" />
        </mxCell>
        <mxCell id="7CmSQX5z0Lune_JCAw_3-7" value="Address" style="ellipse;whiteSpace=wrap;html=1;align=center;" vertex="1" parent="1">
          <mxGeometry x="150" y="80" width="100" height="40" as="geometry" />
        </mxCell>
        <mxCell id="7CmSQX5z0Lune_JCAw_3-8" value="CustomerID" style="ellipse;whiteSpace=wrap;html=1;align=center;fontStyle=4;" vertex="1" parent="1">
          <mxGeometry x="-70" y="80" width="100" height="40" as="geometry" />
        </mxCell>
        <mxCell id="7CmSQX5z0Lune_JCAw_3-9" value="" style="endArrow=none;html=1;rounded=0;exitX=0.5;exitY=1;exitDx=0;exitDy=0;entryX=0.5;entryY=0;entryDx=0;entryDy=0;edgeStyle=orthogonalEdgeStyle;" edge="1" parent="1" source="7CmSQX5z0Lune_JCAw_3-8" target="7CmSQX5z0Lune_JCAw_3-1">
          <mxGeometry relative="1" as="geometry">
            <mxPoint x="-30" y="170" as="sourcePoint" />
            <mxPoint x="130" y="170" as="targetPoint" />
          </mxGeometry>
        </mxCell>
        <mxCell id="7CmSQX5z0Lune_JCAw_3-10" value="" style="endArrow=none;html=1;rounded=0;exitX=0.5;exitY=1;exitDx=0;exitDy=0;edgeStyle=orthogonalEdgeStyle;" edge="1" parent="1" source="7CmSQX5z0Lune_JCAw_3-6">
          <mxGeometry relative="1" as="geometry">
            <mxPoint x="-10" y="130" as="sourcePoint" />
            <mxPoint x="150" y="150" as="targetPoint" />
          </mxGeometry>
        </mxCell>
        <mxCell id="7CmSQX5z0Lune_JCAw_3-11" value="" style="endArrow=none;html=1;rounded=0;exitX=0.5;exitY=1;exitDx=0;exitDy=0;entryX=0.5;entryY=0;entryDx=0;entryDy=0;edgeStyle=orthogonalEdgeStyle;" edge="1" parent="1" source="7CmSQX5z0Lune_JCAw_3-7" target="7CmSQX5z0Lune_JCAw_3-1">
          <mxGeometry relative="1" as="geometry">
            <mxPoint x="100" y="130" as="sourcePoint" />
            <mxPoint x="160" y="160" as="targetPoint" />
          </mxGeometry>
        </mxCell>
        <mxCell id="7CmSQX5z0Lune_JCAw_3-12" value="" style="endArrow=none;html=1;rounded=0;exitX=0.5;exitY=1;exitDx=0;exitDy=0;entryX=0.5;entryY=0;entryDx=0;entryDy=0;edgeStyle=orthogonalEdgeStyle;" edge="1" parent="1" source="7CmSQX5z0Lune_JCAw_3-5" target="7CmSQX5z0Lune_JCAw_3-1">
          <mxGeometry relative="1" as="geometry">
            <mxPoint x="250" y="140" as="sourcePoint" />
            <mxPoint x="150" y="150" as="targetPoint" />
          </mxGeometry>
        </mxCell>
        <mxCell id="7CmSQX5z0Lune_JCAw_3-13" value="RestaurantID" style="ellipse;whiteSpace=wrap;html=1;align=center;fontStyle=4;" vertex="1" parent="1">
          <mxGeometry x="500" y="265" width="100" height="40" as="geometry" />
        </mxCell>
        <mxCell id="7CmSQX5z0Lune_JCAw_3-14" value="RestaurantName" style="ellipse;whiteSpace=wrap;html=1;align=center;" vertex="1" parent="1">
          <mxGeometry x="500" y="325" width="100" height="40" as="geometry" />
        </mxCell>
        <mxCell id="7CmSQX5z0Lune_JCAw_3-15" value="RestaurantAddress" style="ellipse;whiteSpace=wrap;html=1;align=center;" vertex="1" parent="1">
          <mxGeometry x="500" y="385" width="120" height="40" as="geometry" />
        </mxCell>
        <mxCell id="7CmSQX5z0Lune_JCAw_3-16" value="" style="endArrow=none;html=1;rounded=0;entryX=0;entryY=0.5;entryDx=0;entryDy=0;exitX=1;exitY=0.5;exitDx=0;exitDy=0;edgeStyle=orthogonalEdgeStyle;" edge="1" parent="1" source="7CmSQX5z0Lune_JCAw_3-3" target="7CmSQX5z0Lune_JCAw_3-13">
          <mxGeometry relative="1" as="geometry">
            <mxPoint x="170" y="390" as="sourcePoint" />
            <mxPoint x="330" y="390" as="targetPoint" />
          </mxGeometry>
        </mxCell>
        <mxCell id="7CmSQX5z0Lune_JCAw_3-17" value="" style="endArrow=none;html=1;rounded=0;exitX=1;exitY=0.5;exitDx=0;exitDy=0;entryX=0;entryY=0.5;entryDx=0;entryDy=0;edgeStyle=orthogonalEdgeStyle;" edge="1" parent="1" source="7CmSQX5z0Lune_JCAw_3-3" target="7CmSQX5z0Lune_JCAw_3-14">
          <mxGeometry relative="1" as="geometry">
            <mxPoint x="170" y="390" as="sourcePoint" />
            <mxPoint x="330" y="390" as="targetPoint" />
          </mxGeometry>
        </mxCell>
        <mxCell id="7CmSQX5z0Lune_JCAw_3-18" value="" style="endArrow=none;html=1;rounded=0;entryX=1;entryY=0.5;entryDx=0;entryDy=0;exitX=0;exitY=0.5;exitDx=0;exitDy=0;edgeStyle=orthogonalEdgeStyle;" edge="1" parent="1" source="7CmSQX5z0Lune_JCAw_3-15" target="7CmSQX5z0Lune_JCAw_3-3">
          <mxGeometry relative="1" as="geometry">
            <mxPoint x="170" y="390" as="sourcePoint" />
            <mxPoint x="330" y="390" as="targetPoint" />
          </mxGeometry>
        </mxCell>
        <mxCell id="7CmSQX5z0Lune_JCAw_3-19" value="ItemID" style="ellipse;whiteSpace=wrap;html=1;align=center;fontStyle=4;" vertex="1" parent="1">
          <mxGeometry x="-68" y="560" width="100" height="40" as="geometry" />
        </mxCell>
        <mxCell id="7CmSQX5z0Lune_JCAw_3-20" value="DishName" style="ellipse;whiteSpace=wrap;html=1;align=center;" vertex="1" parent="1">
          <mxGeometry x="42" y="560" width="100" height="40" as="geometry" />
        </mxCell>
        <mxCell id="7CmSQX5z0Lune_JCAw_3-21" value="Price" style="ellipse;whiteSpace=wrap;html=1;align=center;" vertex="1" parent="1">
          <mxGeometry x="152" y="560" width="100" height="40" as="geometry" />
        </mxCell>
        <mxCell id="7CmSQX5z0Lune_JCAw_3-22" value="RestaurantID" style="ellipse;whiteSpace=wrap;html=1;align=center;" vertex="1" parent="1">
          <mxGeometry x="262" y="560" width="100" height="40" as="geometry" />
        </mxCell>
        <mxCell id="7CmSQX5z0Lune_JCAw_3-23" value="" style="endArrow=none;html=1;rounded=0;entryX=0.5;entryY=0;entryDx=0;entryDy=0;exitX=0.5;exitY=1;exitDx=0;exitDy=0;edgeStyle=orthogonalEdgeStyle;" edge="1" parent="1" source="7CmSQX5z0Lune_JCAw_3-2" target="7CmSQX5z0Lune_JCAw_3-19">
          <mxGeometry relative="1" as="geometry">
            <mxPoint x="170" y="520" as="sourcePoint" />
            <mxPoint x="330" y="520" as="targetPoint" />
          </mxGeometry>
        </mxCell>
        <mxCell id="7CmSQX5z0Lune_JCAw_3-24" value="" style="endArrow=none;html=1;rounded=0;entryX=0.5;entryY=1;entryDx=0;entryDy=0;exitX=0.5;exitY=0;exitDx=0;exitDy=0;edgeStyle=orthogonalEdgeStyle;" edge="1" parent="1" source="7CmSQX5z0Lune_JCAw_3-20" target="7CmSQX5z0Lune_JCAw_3-2">
          <mxGeometry relative="1" as="geometry">
            <mxPoint x="12" y="670" as="sourcePoint" />
            <mxPoint x="172" y="670" as="targetPoint" />
          </mxGeometry>
        </mxCell>
        <mxCell id="7CmSQX5z0Lune_JCAw_3-25" value="" style="endArrow=none;html=1;rounded=0;exitX=0.5;exitY=0;exitDx=0;exitDy=0;entryX=0.5;entryY=1;entryDx=0;entryDy=0;edgeStyle=orthogonalEdgeStyle;" edge="1" parent="1" source="7CmSQX5z0Lune_JCAw_3-22" target="7CmSQX5z0Lune_JCAw_3-2">
          <mxGeometry relative="1" as="geometry">
            <mxPoint x="170" y="520" as="sourcePoint" />
            <mxPoint x="330" y="520" as="targetPoint" />
          </mxGeometry>
        </mxCell>
        <mxCell id="7CmSQX5z0Lune_JCAw_3-26" value="" style="endArrow=none;html=1;rounded=0;entryX=0.5;entryY=0;entryDx=0;entryDy=0;exitX=0.5;exitY=1;exitDx=0;exitDy=0;edgeStyle=orthogonalEdgeStyle;" edge="1" parent="1" source="7CmSQX5z0Lune_JCAw_3-2" target="7CmSQX5z0Lune_JCAw_3-21">
          <mxGeometry relative="1" as="geometry">
            <mxPoint x="170" y="520" as="sourcePoint" />
            <mxPoint x="330" y="520" as="targetPoint" />
          </mxGeometry>
        </mxCell>
        <mxCell id="7CmSQX5z0Lune_JCAw_3-27" value="OrderID" style="ellipse;whiteSpace=wrap;html=1;align=center;fontStyle=4;" vertex="1" parent="1">
          <mxGeometry x="-290" y="210" width="100" height="40" as="geometry" />
        </mxCell>
        <mxCell id="7CmSQX5z0Lune_JCAw_3-28" value="CustomerID" style="ellipse;whiteSpace=wrap;html=1;align=center;fontStyle=4" vertex="1" parent="1">
          <mxGeometry x="-290" y="260" width="100" height="40" as="geometry" />
        </mxCell>
        <mxCell id="7CmSQX5z0Lune_JCAw_3-29" value="ItemID" style="ellipse;whiteSpace=wrap;html=1;align=center;fontStyle=4" vertex="1" parent="1">
          <mxGeometry x="-290" y="310" width="100" height="40" as="geometry" />
        </mxCell>
        <mxCell id="7CmSQX5z0Lune_JCAw_3-30" value="RestaurantID" style="ellipse;whiteSpace=wrap;html=1;align=center;fontStyle=4" vertex="1" parent="1">
          <mxGeometry x="-290" y="360" width="100" height="40" as="geometry" />
        </mxCell>
        <mxCell id="7CmSQX5z0Lune_JCAw_3-31" value="Date" style="ellipse;whiteSpace=wrap;html=1;align=center;" vertex="1" parent="1">
          <mxGeometry x="-290" y="410" width="100" height="40" as="geometry" />
        </mxCell>
        <mxCell id="7CmSQX5z0Lune_JCAw_3-33" value="Time" style="ellipse;whiteSpace=wrap;html=1;align=center;" vertex="1" parent="1">
          <mxGeometry x="-290" y="460" width="100" height="40" as="geometry" />
        </mxCell>
        <mxCell id="7CmSQX5z0Lune_JCAw_3-34" value="Phone" style="ellipse;whiteSpace=wrap;html=1;align=center;" vertex="1" parent="1">
          <mxGeometry x="-290" y="510" width="100" height="40" as="geometry" />
        </mxCell>
        <mxCell id="7CmSQX5z0Lune_JCAw_3-35" value="" style="endArrow=none;html=1;rounded=0;exitX=1;exitY=0.5;exitDx=0;exitDy=0;entryX=0;entryY=0.5;entryDx=0;entryDy=0;edgeStyle=orthogonalEdgeStyle;" edge="1" parent="1" source="7CmSQX5z0Lune_JCAw_3-27" target="7CmSQX5z0Lune_JCAw_3-4">
          <mxGeometry relative="1" as="geometry">
            <mxPoint x="100" y="320" as="sourcePoint" />
            <mxPoint x="260" y="320" as="targetPoint" />
          </mxGeometry>
        </mxCell>
        <mxCell id="7CmSQX5z0Lune_JCAw_3-36" value="" style="endArrow=none;html=1;rounded=0;exitX=1;exitY=0.5;exitDx=0;exitDy=0;entryX=0;entryY=0.5;entryDx=0;entryDy=0;edgeStyle=orthogonalEdgeStyle;" edge="1" parent="1" source="7CmSQX5z0Lune_JCAw_3-28" target="7CmSQX5z0Lune_JCAw_3-4">
          <mxGeometry relative="1" as="geometry">
            <mxPoint x="100" y="320" as="sourcePoint" />
            <mxPoint x="260" y="320" as="targetPoint" />
          </mxGeometry>
        </mxCell>
        <mxCell id="7CmSQX5z0Lune_JCAw_3-37" value="" style="endArrow=none;html=1;rounded=0;exitX=1;exitY=0.5;exitDx=0;exitDy=0;entryX=0;entryY=0.5;entryDx=0;entryDy=0;edgeStyle=orthogonalEdgeStyle;" edge="1" parent="1" source="7CmSQX5z0Lune_JCAw_3-29" target="7CmSQX5z0Lune_JCAw_3-4">
          <mxGeometry relative="1" as="geometry">
            <mxPoint x="100" y="320" as="sourcePoint" />
            <mxPoint x="-180" y="370" as="targetPoint" />
          </mxGeometry>
        </mxCell>
        <mxCell id="7CmSQX5z0Lune_JCAw_3-38" value="" style="endArrow=none;html=1;rounded=0;exitX=1;exitY=0.5;exitDx=0;exitDy=0;entryX=0;entryY=0.5;entryDx=0;entryDy=0;edgeStyle=orthogonalEdgeStyle;" edge="1" parent="1" source="7CmSQX5z0Lune_JCAw_3-30" target="7CmSQX5z0Lune_JCAw_3-4">
          <mxGeometry relative="1" as="geometry">
            <mxPoint x="-180" y="340" as="sourcePoint" />
            <mxPoint x="-150" y="350" as="targetPoint" />
          </mxGeometry>
        </mxCell>
        <mxCell id="7CmSQX5z0Lune_JCAw_3-39" value="" style="endArrow=none;html=1;rounded=0;exitX=1;exitY=0.5;exitDx=0;exitDy=0;entryX=0;entryY=0.5;entryDx=0;entryDy=0;edgeStyle=orthogonalEdgeStyle;" edge="1" parent="1" source="7CmSQX5z0Lune_JCAw_3-31" target="7CmSQX5z0Lune_JCAw_3-4">
          <mxGeometry relative="1" as="geometry">
            <mxPoint x="-180" y="390" as="sourcePoint" />
            <mxPoint x="-150" y="350" as="targetPoint" />
          </mxGeometry>
        </mxCell>
        <mxCell id="7CmSQX5z0Lune_JCAw_3-40" value="" style="endArrow=none;html=1;rounded=0;exitX=1;exitY=0.5;exitDx=0;exitDy=0;entryX=0;entryY=0.5;entryDx=0;entryDy=0;edgeStyle=orthogonalEdgeStyle;" edge="1" parent="1" source="7CmSQX5z0Lune_JCAw_3-33" target="7CmSQX5z0Lune_JCAw_3-4">
          <mxGeometry relative="1" as="geometry">
            <mxPoint x="-180" y="440" as="sourcePoint" />
            <mxPoint x="-150" y="350" as="targetPoint" />
          </mxGeometry>
        </mxCell>
        <mxCell id="7CmSQX5z0Lune_JCAw_3-41" value="" style="endArrow=none;html=1;rounded=0;exitX=1;exitY=0.5;exitDx=0;exitDy=0;entryX=0;entryY=0.5;entryDx=0;entryDy=0;edgeStyle=orthogonalEdgeStyle;" edge="1" parent="1" source="7CmSQX5z0Lune_JCAw_3-34" target="7CmSQX5z0Lune_JCAw_3-4">
          <mxGeometry relative="1" as="geometry">
            <mxPoint x="-180" y="490" as="sourcePoint" />
            <mxPoint x="-150" y="350" as="targetPoint" />
          </mxGeometry>
        </mxCell>
        <mxCell id="7CmSQX5z0Lune_JCAw_3-42" value="Made by" style="shape=rhombus;perimeter=rhombusPerimeter;whiteSpace=wrap;html=1;align=center;" vertex="1" parent="1">
          <mxGeometry x="280" y="452.5" width="80" height="45" as="geometry" />
        </mxCell>
        <mxCell id="7CmSQX5z0Lune_JCAw_3-43" value="" style="edgeStyle=entityRelationEdgeStyle;fontSize=12;html=1;endArrow=ERone;endFill=1;rounded=0;exitX=0;exitY=0.5;exitDx=0;exitDy=0;entryX=1;entryY=0.5;entryDx=0;entryDy=0;" edge="1" parent="1" source="7CmSQX5z0Lune_JCAw_3-42" target="7CmSQX5z0Lune_JCAw_3-2">
          <mxGeometry width="100" height="100" relative="1" as="geometry">
            <mxPoint x="230" y="500" as="sourcePoint" />
            <mxPoint x="270" y="450" as="targetPoint" />
          </mxGeometry>
        </mxCell>
        <mxCell id="7CmSQX5z0Lune_JCAw_3-44" value="" style="edgeStyle=orthogonalEdgeStyle;fontSize=12;html=1;endArrow=ERone;endFill=1;rounded=0;exitX=1;exitY=0.5;exitDx=0;exitDy=0;entryX=0.5;entryY=1;entryDx=0;entryDy=0;" edge="1" parent="1" source="7CmSQX5z0Lune_JCAw_3-42" target="7CmSQX5z0Lune_JCAw_3-3">
          <mxGeometry width="100" height="100" relative="1" as="geometry">
            <mxPoint x="490" y="460" as="sourcePoint" />
            <mxPoint x="410" y="440" as="targetPoint" />
          </mxGeometry>
        </mxCell>
        <mxCell id="7CmSQX5z0Lune_JCAw_3-45" value="Present in" style="shape=rhombus;perimeter=rhombusPerimeter;whiteSpace=wrap;html=1;align=center;" vertex="1" parent="1">
          <mxGeometry x="-130" y="420" width="120" height="60" as="geometry" />
        </mxCell>
        <mxCell id="7CmSQX5z0Lune_JCAw_3-46" value="" style="edgeStyle=orthogonalEdgeStyle;fontSize=12;html=1;endArrow=ERzeroToMany;endFill=1;rounded=0;entryX=0;entryY=0.75;entryDx=0;entryDy=0;exitX=0.5;exitY=1;exitDx=0;exitDy=0;" edge="1" parent="1" source="7CmSQX5z0Lune_JCAw_3-45" target="7CmSQX5z0Lune_JCAw_3-2">
          <mxGeometry width="100" height="100" relative="1" as="geometry">
            <mxPoint x="30" y="470" as="sourcePoint" />
            <mxPoint x="130" y="370" as="targetPoint" />
          </mxGeometry>
        </mxCell>
        <mxCell id="7CmSQX5z0Lune_JCAw_3-47" value="" style="edgeStyle=orthogonalEdgeStyle;fontSize=12;html=1;endArrow=ERzeroToMany;endFill=1;rounded=0;entryX=0.5;entryY=1;entryDx=0;entryDy=0;exitX=0.5;exitY=0;exitDx=0;exitDy=0;" edge="1" parent="1" source="7CmSQX5z0Lune_JCAw_3-45" target="7CmSQX5z0Lune_JCAw_3-4">
          <mxGeometry width="100" height="100" relative="1" as="geometry">
            <mxPoint x="30" y="470" as="sourcePoint" />
            <mxPoint x="130" y="370" as="targetPoint" />
          </mxGeometry>
        </mxCell>
        <mxCell id="7CmSQX5z0Lune_JCAw_3-48" value="Creates" style="shape=rhombus;perimeter=rhombusPerimeter;whiteSpace=wrap;html=1;align=center;" vertex="1" parent="1">
          <mxGeometry x="-130" y="205" width="120" height="60" as="geometry" />
        </mxCell>
        <mxCell id="7CmSQX5z0Lune_JCAw_3-49" value="" style="edgeStyle=orthogonalEdgeStyle;fontSize=12;html=1;endArrow=ERzeroToMany;endFill=1;rounded=0;entryX=0;entryY=0.5;entryDx=0;entryDy=0;exitX=0.5;exitY=0;exitDx=0;exitDy=0;" edge="1" parent="1" source="7CmSQX5z0Lune_JCAw_3-48" target="7CmSQX5z0Lune_JCAw_3-1">
          <mxGeometry width="100" height="100" relative="1" as="geometry">
            <mxPoint x="11.5" y="300" as="sourcePoint" />
            <mxPoint x="151.5" y="318" as="targetPoint" />
          </mxGeometry>
        </mxCell>
        <mxCell id="7CmSQX5z0Lune_JCAw_3-50" value="" style="edgeStyle=orthogonalEdgeStyle;fontSize=12;html=1;endArrow=ERzeroToMany;endFill=1;rounded=0;entryX=0.5;entryY=0;entryDx=0;entryDy=0;exitX=0.5;exitY=1;exitDx=0;exitDy=0;" edge="1" parent="1" source="7CmSQX5z0Lune_JCAw_3-48" target="7CmSQX5z0Lune_JCAw_3-4">
          <mxGeometry width="100" height="100" relative="1" as="geometry">
            <mxPoint x="-30" y="275" as="sourcePoint" />
            <mxPoint x="110" y="265" as="targetPoint" />
          </mxGeometry>
        </mxCell>
        <mxCell id="7CmSQX5z0Lune_JCAw_3-51" value="Provided by" style="shape=rhombus;perimeter=rhombusPerimeter;whiteSpace=wrap;html=1;align=center;" vertex="1" parent="1">
          <mxGeometry x="90" y="315" width="120" height="60" as="geometry" />
        </mxCell>
        <mxCell id="7CmSQX5z0Lune_JCAw_3-52" value="" style="edgeStyle=entityRelationEdgeStyle;fontSize=12;html=1;endArrow=ERmandOne;rounded=0;entryX=0;entryY=0.5;entryDx=0;entryDy=0;exitX=1;exitY=0.5;exitDx=0;exitDy=0;" edge="1" parent="1" source="7CmSQX5z0Lune_JCAw_3-51" target="7CmSQX5z0Lune_JCAw_3-3">
          <mxGeometry width="100" height="100" relative="1" as="geometry">
            <mxPoint x="90" y="380" as="sourcePoint" />
            <mxPoint x="190" y="280" as="targetPoint" />
          </mxGeometry>
        </mxCell>
        <mxCell id="7CmSQX5z0Lune_JCAw_3-53" value="" style="edgeStyle=entityRelationEdgeStyle;fontSize=12;html=1;endArrow=ERzeroToMany;endFill=1;rounded=0;exitX=0;exitY=0.5;exitDx=0;exitDy=0;entryX=1;entryY=0.5;entryDx=0;entryDy=0;" edge="1" parent="1" source="7CmSQX5z0Lune_JCAw_3-51" target="7CmSQX5z0Lune_JCAw_3-4">
          <mxGeometry width="100" height="100" relative="1" as="geometry">
            <mxPoint x="90" y="380" as="sourcePoint" />
            <mxPoint x="190" y="280" as="targetPoint" />
          </mxGeometry>
        </mxCell>
      </root>
    </mxGraphModel>
  </diagram>
</mxfile>
